Coordinates
version=1
nRows=21
nColumns=38
inDegrees=no

Units are S.I. units (second, meters, Newtons, ...)
If the header above contains a line with 'inDegrees', this indicates whether rotational values are in degrees (yes) or radians (no).

endheader
time	pelvis_tilt	pelvis_list	pelvis_rotation	pelvis_tx	pelvis_ty	pelvis_tz	hip_flexion_r	hip_adduction_r	hip_rotation_r	knee_angle_r	ankle_angle_r	subtalar_angle_r	mtp_angle_r	hip_flexion_l	hip_adduction_l	hip_rotation_l	knee_angle_l	ankle_angle_l	subtalar_angle_l	mtp_angle_l	lumbar_extension	lumbar_bending	lumbar_rotation	arm_flex_r	arm_add_r	arm_rot_r	elbow_flex_r	pro_sup_r	wrist_flex_r	wrist_dev_r	arm_flex_l	arm_add_l	arm_rot_l	elbow_flex_l	pro_sup_l	wrist_flex_l	wrist_dev_l
2.42	-0.1255	-0.0115924	-0.0745692	0.771044	0.966704	-0.449807	0.330271	-0.0141297	-0.0581379	-0.760571	0.475715	-0.00851793	0.00027473	0.564796	-0.12034	-0.0738328	-1.45275	0.0688933	0.0162463	-4.19321e-05	-0.111421	0.0844229	-0.0687938	-0.160553	-0.273422	0.161776	1.84422	1.46984	0.00438679	0.00160641	-0.546561	-0.557301	0.334521	1.93074	1.34575	0.00333543	-0.0204063
2.43	-0.127945	-7.96995e-05	-0.0738665	0.770734	0.97149	-0.450791	0.296453	-0.028175	-0.0562108	-0.730889	0.452763	-0.00851793	0.00027473	0.585241	-0.10334	-0.0785942	-1.4202	0.0787426	0.0162463	-4.19321e-05	-0.10727	0.0693084	-0.0570728	-0.148209	-0.263452	0.15963	1.86864	1.50181	0.00438679	0.00160641	-0.586672	-0.561949	0.323809	1.94395	1.32952	0.00333543	-0.0204063
2.44	-0.129442	0.0125101	-0.0726986	0.770893	0.977021	-0.451942	0.260641	-0.0437151	-0.0555512	-0.698647	0.422864	-0.00851793	0.00027473	0.599829	-0.0859514	-0.0865942	-1.37781	0.0878011	0.0162463	-4.19321e-05	-0.103062	0.0527449	-0.0462457	-0.138758	-0.254881	0.157555	1.89353	1.53027	0.00438679	0.00160641	-0.62758	-0.566282	0.311424	1.95973	1.31342	0.00333543	-0.0204063
2.45	-0.129955	0.025677	-0.0708682	0.771491	0.983125	-0.453251	0.223562	-0.0603134	-0.0569516	-0.665119	0.386103	-0.00851793	0.00027473	0.608437	-0.068876	-0.0974862	-1.3258	0.0960883	0.0162463	-4.19321e-05	-0.0990153	0.0353556	-0.0365972	-0.13184	-0.247865	0.156278	1.91791	1.55241	0.00438679	0.00160641	-0.668527	-0.570009	0.297567	1.97666	1.29754	0.00333543	-0.0204063
2.46	-0.129579	0.0388338	-0.0682798	0.772473	0.989611	-0.45469	0.18611	-0.0773816	-0.0610728	-0.631654	0.342921	-0.00851793	0.00027473	0.611207	-0.0527316	-0.110609	-1.26458	0.103579	0.0162463	-4.19321e-05	-0.095227	0.017813	-0.0282833	-0.127175	-0.242387	0.156266	1.94108	1.56629	0.00438679	0.00160641	-0.708791	-0.572924	0.282433	1.99363	1.28215	0.00333543	-0.0204063
2.47	-0.128554	0.0513317	-0.0649272	0.77377	0.996262	-0.456227	0.149329	-0.0942173	-0.0683765	-0.599657	0.294161	-0.00851793	0.00027473	0.608576	-0.0380238	-0.124959	-1.19477	0.110197	0.0162463	-4.19321e-05	-0.0916491	0.000826847	-0.0213352	-0.124571	-0.238281	0.157686	1.96257	1.57112	0.00438679	0.00160641	-0.7477	-0.574914	0.266236	2.00985	1.26772	0.00333543	-0.0204063
2.48	-0.127232	0.0625277	-0.0608634	0.775296	1.00286	-0.457824	0.114347	-0.110072	-0.0790528	-0.570553	0.241053	-0.00851793	0.00027473	0.601262	-0.0251253	-0.139235	-1.11734	0.115807	0.0162463	-4.19321e-05	-0.0881016	-0.0148867	-0.0156884	-0.123915	-0.23528	0.160434	1.9821	1.56726	0.00438679	0.00160641	-0.784615	-0.575965	0.249239	2.02485	1.25497	0.00333543	-0.0204063
2.49	-0.126023	0.0718544	-0.0561666	0.776971	1.00918	-0.459454	0.0822814	-0.124258	-0.092956	-0.545735	0.185173	-0.00851793	0.00027473	0.590209	-0.0142521	-0.151982	-1.03361	0.120207	0.0162463	-4.19321e-05	-0.0843316	-0.0286774	-0.0112359	-0.125149	-0.23309	0.16419	1.99957	1.55606	0.00438679	0.00160641	-0.818913	-0.576147	0.231801	2.03844	1.24468	0.00333543	-0.0204063
2.5	-0.125302	0.0788932	-0.0509047	0.778713	1.01502	-0.461103	0.0541267	-0.13626	-0.109579	-0.526511	0.128385	-0.00851793	0.00027473	0.576488	-0.00544065	-0.161796	-0.945384	0.123122	0.0162463	-4.19321e-05	-0.0800949	-0.0400546	-0.00788351	-0.128229	-0.231466	0.168502	2.01497	1.53968	0.00438679	0.00160641	-0.849976	-0.575605	0.21439	2.05058	1.23761	0.00333543	-0.0204063
2.51	-0.125329	0.0834589	-0.0451098	0.780445	1.02021	-0.462773	0.0306602	-0.145827	-0.128078	-0.514039	0.0727538	-0.00851793	0.00027473	0.561203	0.00145417	-0.167554	-0.854858	0.124204	0.0162463	-4.19321e-05	-0.07524	-0.0487589	-0.00559534	-0.133084	-0.230256	0.172879	2.02833	1.5207	0.00438679	0.00160641	-0.877192	-0.574527	0.197575	2.06138	1.2342	0.00333543	-0.0204063
2.52	-0.1262	0.0856177	-0.0387789	0.782099	1.0246	-0.464485	0.0123843	-0.152975	-0.147325	-0.50927	0.0204275	-0.00851793	0.00027473	0.545421	0.00672375	-0.16861	-0.764662	0.123073	0.0162463	-4.19321e-05	-0.0697648	-0.0548001	-0.00440891	-0.139588	-0.229402	0.176869	2.03972	1.50175	0.00438679	0.00160641	-0.899992	-0.573119	0.181958	2.07098	1.23448	0.00333543	-0.0204063
2.53	-0.127824	0.0856442	-0.0319063	0.783621	1.02809	-0.466262	-0.000489621	-0.157916	-0.165948	-0.512901	-0.0265383	-0.00851793	0.00027473	0.53011	0.010733	-0.164911	-0.677761	0.119409	0.0162463	-4.19321e-05	-0.0638366	-0.0584385	-0.00441084	-0.147554	-0.228897	0.180135	2.04916	1.48506	0.00438679	0.00160641	-0.9179	-0.57159	0.168101	2.07957	1.23802	0.00333543	-0.0204063
2.54	-0.129946	0.0839793	-0.0245359	0.784972	1.03061	-0.468122	-0.00802709	-0.160928	-0.182382	-0.525327	-0.0663761	-0.00851793	0.00027473	0.516087	0.0138309	-0.157017	-0.597311	0.113093	0.0162463	-4.19321e-05	-0.057778	-0.060106	-0.00567936	-0.156752	-0.22873	0.182478	2.05663	1.4722	0.00438679	0.00160641	-0.930589	-0.570136	0.156449	2.08734	1.24401	0.00333543	-0.0204063
2.55	-0.132172	0.0811459	-0.0167983	0.78612	1.03214	-0.470062	-0.0105436	-0.162247	-0.194989	-0.54661	-0.0977835	-0.00851793	0.00027473	0.503954	0.0162998	-0.145993	-0.526432	0.104361	0.0162463	-4.19321e-05	-0.052034	-0.0603194	-0.00822337	-0.166929	-0.228853	0.183854	2.06206	1.46383	0.00438679	0.00160641	-0.937917	-0.568946	0.147288	2.09446	1.25141	0.00333543	-0.0204063
2.56	-0.134009	0.0776675	-0.00890973	0.787056	1.03271	-0.472063	-0.0085788	-0.162063	-0.202322	-0.576477	-0.120033	-0.00851793	0.00027473	0.494022	0.0183661	-0.13323	-0.467915	0.0939124	0.0162463	-4.19321e-05	-0.0471344	-0.0596198	-0.0119729	-0.177838	-0.229173	0.184351	2.06534	1.45976	0.00438679	0.00160641	-0.939932	-0.568187	0.140748	2.10112	1.25916	0.00333543	-0.0204063
2.57	-0.134915	0.0740171	-0.00112806	0.787792	1.03232	-0.474094	-0.00283321	-0.16056	-0.203464	-0.614345	-0.133004	-0.00851793	0.00027473	0.486287	0.0202362	-0.120172	-0.423947	0.0829606	0.0162463	-4.19321e-05	-0.043624	-0.0585108	-0.0168119	-0.189247	-0.229577	0.184163	2.06632	1.4591	0.00438679	0.00160641	-0.936841	-0.568002	0.136841	2.10745	1.2663	0.00333543	-0.0204063
2.58	-0.134384	0.0705867	0.0063075	0.788353	1.03102	-0.476128	0.0059302	-0.157989	-0.198312	-0.659396	-0.137138	-0.00851793	0.00027473	0.480482	0.0221199	-0.108044	-0.395918	0.0732093	0.0162463	-4.19321e-05	-0.04198	-0.057405	-0.0226267	-0.200951	-0.229962	0.183544	2.06484	1.46055	0.00438679	0.00160641	-0.928957	-0.568506	0.135516	2.11354	1.27208	0.00333543	-0.0204063
2.59	-0.132024	0.0676729	0.0132217	0.788764	1.02885	-0.478156	0.0170001	-0.154722	-0.187674	-0.710653	-0.133327	-0.00851793	0.00027473	0.476174	0.0242309	-0.0976151	-0.384328	0.0667717	0.0162463	-4.19321e-05	-0.0425352	-0.0565917	-0.0293418	-0.21276	-0.230258	0.182755	2.06071	1.46272	0.00438679	0.00160641	-0.916635	-0.569781	0.136714	2.1194	1.27602	0.00333543	-0.0204063
2.6	-0.127649	0.065495	0.0195187	0.789053	1.02583	-0.480185	0.0298255	-0.151264	-0.173144	-0.767058	-0.122772	-0.00851793	0.00027473	0.472876	0.0267666	-0.0890927	-0.388788	0.0659977	0.0162463	-4.19321e-05	-0.0454216	-0.05623	-0.0369276	-0.224504	-0.230427	0.182012	2.05373	1.4644	0.00438679	0.00160641	-0.900208	-0.571882	0.140399	2.12498	1.27793	0.00333543	-0.0204063
2.61	-0.121349	0.0641693	0.0251757	0.789226	1.02196	-0.482224	0.0441071	-0.148233	-0.156779	-0.827515	-0.106824	-0.00851793	0.00027473	0.470159	0.0298882	-0.0821922	-0.408072	0.0731614	0.0162463	-4.19321e-05	-0.0505332	-0.05639	-0.0453857	-0.236028	-0.230454	0.181453	2.0437	1.46471	0.00438679	0.00160641	-0.879946	-0.57483	0.146571	2.13015	1.27787	0.00333543	-0.0204063
2.62	-0.113548	0.0637274	0.0302161	0.789262	1.01726	-0.484277	0.0598738	-0.146282	-0.140673	-0.890938	-0.0868284	-0.00851793	0.00027473	0.467754	0.033699	-0.0763847	-0.440215	0.0899924	0.0162463	-4.19321e-05	-0.0575038	-0.0571067	-0.0547287	-0.247207	-0.230327	0.181119	2.03043	1.46326	0.00438679	0.00160641	-0.856032	-0.578611	0.155243	2.13467	1.27604	0.00333543	-0.0204063
